<svg id="Layer_1" data-name="Layer 1" xmlns="http://www.w3.org/2000/svg" viewBox="0 0 140.8 39.49"><defs><style>.cls-1{fill:#fff;}</style></defs><title>logo_lcms</title><path class="cls-1" d="M5.49,14.83H8.86V26.95H14.8v2.84H5.49v-15Z" transform="translate(-5.49 7.54)"/><path class="cls-1" d="M26.92,29.39a9.92,9.92,0,0,1-3.82.64c-5.17,0-7.83-3.24-7.83-7.5,0-5.1,3.64-7.92,8.16-7.92a8.46,8.46,0,0,1,3.68.67l-0.71,2.66a7.13,7.13,0,0,0-2.84-.55c-2.66,0-4.75,1.62-4.75,4.95,0,3,1.77,4.88,4.77,4.88a8.06,8.06,0,0,0,2.84-.49Z" transform="translate(-5.49 7.54)"/><path class="cls-1" d="M41.81,24.06c-0.07-1.8-.13-4-0.13-6.15h0c-0.49,1.91-1.11,4-1.69,5.79l-1.82,5.83H35.49l-1.6-5.77c-0.49-1.77-1-3.9-1.35-5.86h0c-0.07,2-.16,4.33-0.24,6.19L32,29.79H28.83l1-15h4.5l1.46,5c0.49,1.73.93,3.59,1.26,5.35h0.09c0.4-1.73.91-3.71,1.42-5.37l1.58-5h4.44l0.8,15H42.06Z" transform="translate(-5.49 7.54)"/><path class="cls-1" d="M48.05,26.3a8.55,8.55,0,0,0,3.75.93c1.55,0,2.37-.64,2.37-1.62s-0.71-1.46-2.51-2.09c-2.48-.89-4.13-2.26-4.13-4.44,0-2.55,2.15-4.48,5.66-4.48a8.74,8.74,0,0,1,3.82.75l-0.75,2.71a7,7,0,0,0-3.11-.71C51.69,17.36,51,18,51,18.8c0,1,.82,1.38,2.77,2.11,2.64,1,3.86,2.35,3.86,4.46,0,2.51-1.91,4.64-6,4.64a9.75,9.75,0,0,1-4.24-.93Z" transform="translate(-5.49 7.54)"/><path class="cls-1" d="M59.56,15h0.79V20.4h2.59v0.66H59.56V15Z" transform="translate(-5.49 7.54)"/><path class="cls-1" d="M68.65,18c0,2.08-1.27,3.2-2.82,3.2a2.78,2.78,0,0,1-2.73-3.09,2.88,2.88,0,0,1,2.81-3.19A2.77,2.77,0,0,1,68.65,18ZM63.93,18c0,1.31.7,2.47,1.94,2.47s1.94-1.14,1.94-2.52c0-1.22-.63-2.48-1.94-2.48S63.93,16.72,63.93,18Z" transform="translate(-5.49 7.54)"/><path class="cls-1" d="M70.77,21.05V18.48L68.84,15h0.9l0.86,1.67c0.22,0.46.41,0.83,0.6,1.25h0c0.16-.4.38-0.79,0.61-1.25L72.7,15h0.88l-2,3.48v2.58H70.77Z" transform="translate(-5.49 7.54)"/><path class="cls-1" d="M74.54,19.14l-0.63,1.91H73.1L75.17,15H76.1l2.07,6.07H77.34l-0.65-1.91H74.54Zm2-.61-0.6-1.75c-0.14-.4-0.23-0.76-0.32-1.11h0c-0.09.35-.18,0.73-0.31,1.1L74.7,18.53h1.84Z" transform="translate(-5.49 7.54)"/><path class="cls-1" d="M79.05,15h0.79V20.4h2.59v0.66H79.05V15Z" transform="translate(-5.49 7.54)"/><path class="cls-1" d="M83.67,15.65H81.83V15h4.49v0.67H84.46v5.4H83.67v-5.4Z" transform="translate(-5.49 7.54)"/><path class="cls-1" d="M88.59,21.05V18.48L86.67,15h0.9l0.86,1.67c0.22,0.46.41,0.83,0.6,1.25h0c0.16-.4.38-0.79,0.61-1.25L90.53,15h0.88l-2,3.48v2.58H88.59Z" transform="translate(-5.49 7.54)"/><path class="cls-1" d="M97.82,21.05l-0.57-.58a2.5,2.5,0,0,1-1.77.68,1.72,1.72,0,0,1-1.86-1.7,2,2,0,0,1,1.19-1.77v0a2.11,2.11,0,0,1-.5-1.27,1.47,1.47,0,0,1,1.54-1.5,1.26,1.26,0,0,1,1.34,1.29,1.85,1.85,0,0,1-1.33,1.62v0l1.48,1.68a4.45,4.45,0,0,0,.58-1.77h0.72A4.61,4.61,0,0,1,97.76,20l1,1.08H97.82Zm-1-1c-0.36-.4-1-1.13-1.71-1.92a1.49,1.49,0,0,0-.78,1.24,1.2,1.2,0,0,0,1.25,1.22A1.69,1.69,0,0,0,96.87,20ZM95,16.3a1.75,1.75,0,0,0,.46,1.1,1.5,1.5,0,0,0,1-1.2,0.72,0.72,0,0,0-.71-0.78A0.79,0.79,0,0,0,95,16.3Z" transform="translate(-5.49 7.54)"/><path class="cls-1" d="M105.6,20.86a3.86,3.86,0,0,1-1.6.29,2.83,2.83,0,0,1-3-3.08,3,3,0,0,1,3.17-3.19,3.29,3.29,0,0,1,1.44.27l-0.2.64a2.77,2.77,0,0,0-1.22-.25,2.26,2.26,0,0,0-2.37,2.5,2.2,2.2,0,0,0,2.32,2.44,3.14,3.14,0,0,0,1.29-.25Z" transform="translate(-5.49 7.54)"/><path class="cls-1" d="M107.61,19.14L107,21.05h-0.81L108.24,15h0.94l2.07,6.07h-0.84l-0.65-1.91h-2.15Zm2-.61L109,16.79c-0.14-.4-0.23-0.76-0.32-1.11h0c-0.09.35-.18,0.73-0.31,1.1l-0.59,1.76h1.84Z" transform="translate(-5.49 7.54)"/><path class="cls-1" d="M117.21,18.39c0-.85-0.1-1.87-0.1-2.62h0c-0.22.7-.46,1.47-0.77,2.3L115.26,21h-0.59l-1-2.89c-0.29-.86-0.52-1.64-0.69-2.36h0c0,0.76-.06,1.76-0.12,2.68l-0.16,2.6h-0.75L112.36,15h1l1,2.94c0.25,0.75.45,1.41,0.61,2h0c0.16-.61.38-1.28,0.65-2L116.75,15h1l0.38,6.07h-0.77Z" transform="translate(-5.49 7.54)"/><path class="cls-1" d="M119.34,15.06a9.08,9.08,0,0,1,1.5-.12,2.49,2.49,0,0,1,1.7.5,1.66,1.66,0,0,1,.53,1.27,1.79,1.79,0,0,1-.47,1.3,2.53,2.53,0,0,1-1.85.67,2.7,2.7,0,0,1-.63-0.05v2.43h-0.78v-6ZM120.12,18a2.63,2.63,0,0,0,.65.06,1.3,1.3,0,0,0,1.52-1.29,1.21,1.21,0,0,0-1.43-1.2,3.28,3.28,0,0,0-.74.06V18Z" transform="translate(-5.49 7.54)"/><path class="cls-1" d="M124.35,19.14l-0.63,1.91h-0.81L125,15h0.94L128,21.05h-0.84l-0.65-1.91h-2.15Zm2-.61-0.6-1.75c-0.14-.4-0.23-0.76-0.32-1.11h0c-0.09.35-.18,0.73-0.31,1.1l-0.59,1.76h1.84Z" transform="translate(-5.49 7.54)"/><path class="cls-1" d="M129.66,15v6.07h-0.79V15h0.79Z" transform="translate(-5.49 7.54)"/><path class="cls-1" d="M135.65,20.78a5.49,5.49,0,0,1-1.87.33,2.85,2.85,0,0,1-3.11-3.06A3,3,0,0,1,134,14.92a3.79,3.79,0,0,1,1.52.28l-0.2.64a3,3,0,0,0-1.34-.26A2.27,2.27,0,0,0,131.5,18a2.22,2.22,0,0,0,2.34,2.45,2.55,2.55,0,0,0,1-.16V18.5h-1.22V17.87h2v2.92Z" transform="translate(-5.49 7.54)"/><path class="cls-1" d="M136.84,21.05V15h0.86l1.94,3.07a17,17,0,0,1,1.08,2h0c-0.07-.81-0.09-1.55-0.09-2.49V15h0.74v6.07H140.6L138.68,18a17.55,17.55,0,0,1-1.13-2h0c0,0.77.05,1.49,0.05,2.5v2.59h-0.74Z" transform="translate(-5.49 7.54)"/><path class="cls-1" d="M64.68,29.19c0-.85-0.1-1.87-0.1-2.62h0c-0.22.7-.46,1.47-0.77,2.3l-1.07,2.94H62.13l-1-2.89c-0.29-.86-0.52-1.64-0.69-2.36h0c0,0.76-.06,1.76-0.12,2.68l-0.16,2.6H59.41l0.42-6.07h1l1,2.94c0.25,0.75.45,1.41,0.61,2h0c0.16-.61.38-1.28,0.65-2l1.08-2.94h1l0.38,6.07H64.83Z" transform="translate(-5.49 7.54)"/><path class="cls-1" d="M67.7,29.94l-0.63,1.91H66.26l2.07-6.07h0.94l2.07,6.07H70.5l-0.65-1.91H67.7Zm2-.61-0.6-1.75c-0.14-.4-0.23-0.76-0.32-1.11h0c-0.09.35-.18,0.73-0.31,1.1l-0.59,1.76h1.84Z" transform="translate(-5.49 7.54)"/><path class="cls-1" d="M72.22,31.85V25.78h0.86L75,28.85a17,17,0,0,1,1.08,2h0C76.06,30,76,29.27,76,28.32V25.78h0.74v6.07H76l-1.93-3.08a17.55,17.55,0,0,1-1.13-2h0c0,0.77.05,1.49,0.05,2.5v2.59H72.22Z" transform="translate(-5.49 7.54)"/><path class="cls-1" d="M79.13,29.94L78.5,31.85H77.69l2.07-6.07h0.94l2.07,6.07H81.93l-0.65-1.91H79.13Zm2-.61-0.6-1.75c-0.14-.4-0.23-0.76-0.32-1.11h0c-0.09.35-.18,0.73-0.31,1.1l-0.59,1.76h1.84Z" transform="translate(-5.49 7.54)"/><path class="cls-1" d="M88.14,31.58a5.49,5.49,0,0,1-1.87.33,2.85,2.85,0,0,1-3.11-3.06,3,3,0,0,1,3.29-3.13A3.79,3.79,0,0,1,88,26l-0.2.64a3,3,0,0,0-1.34-.26A2.27,2.27,0,0,0,84,28.82a2.22,2.22,0,0,0,2.34,2.45,2.55,2.55,0,0,0,1-.16V29.3H86.15V28.67h2v2.92Z" transform="translate(-5.49 7.54)"/><path class="cls-1" d="M92.46,29H90.11V31.2h2.63v0.66H89.32V25.78h3.29v0.66H90.11v1.92h2.35V29Z" transform="translate(-5.49 7.54)"/><path class="cls-1" d="M98.87,29.19c0-.85-0.1-1.87-0.1-2.62h0c-0.22.7-.46,1.47-0.77,2.3l-1.07,2.94H96.32l-1-2.89c-0.29-.86-0.52-1.64-0.69-2.36h0c0,0.76-.06,1.76-0.12,2.68l-0.16,2.6H93.6L94,25.78h1l1,2.94c0.25,0.75.45,1.41,0.61,2h0c0.16-.61.38-1.28,0.65-2l1.08-2.94h1l0.38,6.07H99Z" transform="translate(-5.49 7.54)"/><path class="cls-1" d="M104.13,29h-2.35V31.2h2.63v0.66H101V25.78h3.29v0.66h-2.49v1.92h2.35V29Z" transform="translate(-5.49 7.54)"/><path class="cls-1" d="M105.42,31.85V25.78h0.86l1.94,3.07a17,17,0,0,1,1.08,2h0c-0.07-.81-0.09-1.55-0.09-2.49V25.78H110v6.07h-0.79l-1.93-3.08a17.62,17.62,0,0,1-1.12-2h0c0,0.77.05,1.49,0.05,2.5v2.59h-0.74Z" transform="translate(-5.49 7.54)"/><path class="cls-1" d="M112.5,26.45h-1.85V25.78h4.49v0.67h-1.85v5.4H112.5v-5.4Z" transform="translate(-5.49 7.54)"/><path class="cls-1" d="M117.63,30.9a2.66,2.66,0,0,0,1.4.4,1.09,1.09,0,0,0,1.27-1,1.31,1.31,0,0,0-1.14-1.2c-1-.36-1.6-0.88-1.6-1.73a1.75,1.75,0,0,1,2-1.65,2.71,2.71,0,0,1,1.33.3l-0.22.64a2.24,2.24,0,0,0-1.14-.29,1,1,0,0,0-1.14.91c0,0.57.37,0.85,1.21,1.17,1,0.4,1.54.89,1.54,1.78A1.83,1.83,0,0,1,119,32a3.14,3.14,0,0,1-1.55-.4Z" transform="translate(-5.49 7.54)"/><path class="cls-1" d="M123.51,31.85V29.28l-1.93-3.49h0.9l0.86,1.67c0.22,0.46.41,0.83,0.6,1.25h0c0.16-.4.38-0.79,0.61-1.25l0.87-1.67h0.88l-2,3.48v2.58h-0.79Z" transform="translate(-5.49 7.54)"/><path class="cls-1" d="M126.81,30.9a2.66,2.66,0,0,0,1.4.4,1.09,1.09,0,0,0,1.27-1,1.31,1.31,0,0,0-1.14-1.2c-1-.36-1.6-0.88-1.6-1.73a1.75,1.75,0,0,1,2-1.65A2.71,2.71,0,0,1,130,26l-0.22.64a2.24,2.24,0,0,0-1.14-.29,1,1,0,0,0-1.14.91c0,0.57.37,0.85,1.21,1.17,1,0.4,1.54.89,1.54,1.78A1.83,1.83,0,0,1,128.16,32a3.14,3.14,0,0,1-1.55-.4Z" transform="translate(-5.49 7.54)"/><path class="cls-1" d="M132.5,26.45h-1.85V25.78h4.49v0.67H133.3v5.4H132.5v-5.4Z" transform="translate(-5.49 7.54)"/><path class="cls-1" d="M139,29h-2.35V31.2h2.63v0.66h-3.42V25.78h3.29v0.66h-2.49v1.92H139V29Z" transform="translate(-5.49 7.54)"/><path class="cls-1" d="M145.37,29.19c0-.85-0.1-1.87-0.1-2.62h0c-0.22.7-.46,1.47-0.77,2.3l-1.07,2.94h-0.59l-1-2.89c-0.29-.86-0.52-1.64-0.69-2.36h0c0,0.76-.06,1.76-0.12,2.68l-0.16,2.6h-0.75l0.42-6.07h1l1,2.94c0.25,0.75.45,1.41,0.61,2h0c0.16-.61.38-1.28,0.65-2l1.08-2.94h1l0.38,6.07h-0.77Z" transform="translate(-5.49 7.54)"/><text x="-5.49" y="7.54"/></svg>